<svg xmlns="http://www.w3.org/2000/svg" xmlns:xlink="http://www.w3.org/1999/xlink" viewBox="0 0 600 142.04"><defs><style>.cls-1{fill:none;}.cls-2{isolation:isolate;}.cls-3{fill:url(#Áåçûìÿííûé_ãðàäèåíò_26);}.cls-4{fill:#8686f2;}.cls-15,.cls-16,.cls-4,.cls-58{mix-blend-mode:lighten;}.cls-5{fill:url(#Áåçûìÿííûé_ãðàäèåíò_4);}.cls-6{fill:url(#Áåçûìÿííûé_ãðàäèåíò_3);}.cls-20,.cls-7{fill:#fff;}.cls-10,.cls-11,.cls-12,.cls-13,.cls-14,.cls-15,.cls-58,.cls-61,.cls-62,.cls-63,.cls-64,.cls-65,.cls-66,.cls-69,.cls-7,.cls-70,.cls-71,.cls-72,.cls-73,.cls-74,.cls-77,.cls-78,.cls-79,.cls-80,.cls-81,.cls-82,.cls-9{opacity:0.5;}.cls-8{fill:#0f054c;}.cls-9{fill:url(#Áåçûìÿííûé_ãðàäèåíò_254);}.cls-10{fill:url(#Áåçûìÿííûé_ãðàäèåíò_254-2);}.cls-11{fill:url(#Áåçûìÿííûé_ãðàäèåíò_254-3);}.cls-12{fill:url(#Áåçûìÿííûé_ãðàäèåíò_254-4);}.cls-13{fill:url(#Áåçûìÿííûé_ãðàäèåíò_254-5);}.cls-14{fill:url(#Áåçûìÿííûé_ãðàäèåíò_254-6);}.cls-15{fill:url(#Áåçûìÿííûé_ãðàäèåíò_23);}.cls-17,.cls-38,.cls-39{fill:#42e8e0;}.cls-18{fill:url(#Áåçûìÿííûé_ãðàäèåíò_24);}.cls-19{fill:url(#Áåçûìÿííûé_ãðàäèåíò_3-2);}.cls-21{fill:#2842a2;}.cls-22{fill:#adb1f2;}.cls-23{fill:#9198db;}.cls-24{fill:#24126a;}.cls-25{fill:url(#Áåçûìÿííûé_ãðàäèåíò_3-3);}.cls-26{fill:url(#Áåçûìÿííûé_ãðàäèåíò_3-4);}.cls-27{fill:url(#Áåçûìÿííûé_ãðàäèåíò_24-2);}.cls-28,.cls-37{fill:#453c9e;}.cls-29{fill:url(#Áåçûìÿííûé_ãðàäèåíò_24-3);}.cls-30{fill:url(#Áåçûìÿííûé_ãðàäèåíò_3-5);}.cls-31{fill:url(#Áåçûìÿííûé_ãðàäèåíò_3-6);}.cls-32{fill:url(#Áåçûìÿííûé_ãðàäèåíò_3-7);}.cls-33{fill:url(#Áåçûìÿííûé_ãðàäèåíò_24-4);}.cls-34{fill:#bcbeff;}.cls-35{fill:url(#Áåçûìÿííûé_ãðàäèåíò_3-8);}.cls-36,.cls-37{opacity:0.51;}.cls-38{opacity:0.1;}.cls-39{opacity:0.4;}.cls-40{fill:url(#Áåçûìÿííûé_ãðàäèåíò_3-9);}.cls-41{fill:url(#Áåçûìÿííûé_ãðàäèåíò_3-10);}.cls-42{fill:url(#Áåçûìÿííûé_ãðàäèåíò_24-5);}.cls-43{fill:url(#Áåçûìÿííûé_ãðàäèåíò_24-6);}.cls-44{fill:url(#Áåçûìÿííûé_ãðàäèåíò_3-11);}.cls-45{fill:url(#Áåçûìÿííûé_ãðàäèåíò_3-12);}.cls-46{opacity:0.11;}.cls-47{clip-path:url(#clip-path);}.cls-48{fill:url(#Áåçûìÿííûé_ãðàäèåíò_3-13);}.cls-49{fill:url(#Áåçûìÿííûé_ãðàäèåíò_3-14);}.cls-50{fill:url(#Áåçûìÿííûé_ãðàäèåíò_3-15);}.cls-51{fill:url(#Áåçûìÿííûé_ãðàäèåíò_24-7);}.cls-52{fill:url(#Áåçûìÿííûé_ãðàäèåíò_24-8);}.cls-53{fill:url(#Áåçûìÿííûé_ãðàäèåíò_3-16);}.cls-54{fill:url(#Áåçûìÿííûé_ãðàäèåíò_3-17);}.cls-55{clip-path:url(#clip-path-2);}.cls-56{fill:url(#Áåçûìÿííûé_ãðàäèåíò_3-18);}.cls-57{fill:url(#Áåçûìÿííûé_ãðàäèåíò_3-19);}.cls-58{fill:url(#Áåçûìÿííûé_ãðàäèåíò_22);}.cls-59{fill:url(#Áåçûìÿííûé_ãðàäèåíò_4-2);}.cls-60{fill:url(#Áåçûìÿííûé_ãðàäèåíò_3-20);}.cls-61{fill:url(#Áåçûìÿííûé_ãðàäèåíò_254-7);}.cls-62{fill:url(#Áåçûìÿííûé_ãðàäèåíò_254-8);}.cls-63{fill:url(#Áåçûìÿííûé_ãðàäèåíò_254-9);}.cls-64{fill:url(#Áåçûìÿííûé_ãðàäèåíò_254-10);}.cls-65{fill:url(#Áåçûìÿííûé_ãðàäèåíò_254-11);}.cls-66{fill:url(#Áåçûìÿííûé_ãðàäèåíò_254-12);}.cls-67{fill:url(#Áåçûìÿííûé_ãðàäèåíò_4-3);}.cls-68{fill:url(#Áåçûìÿííûé_ãðàäèåíò_3-21);}.cls-69{fill:url(#Áåçûìÿííûé_ãðàäèåíò_254-13);}.cls-70{fill:url(#Áåçûìÿííûé_ãðàäèåíò_254-14);}.cls-71{fill:url(#Áåçûìÿííûé_ãðàäèåíò_254-15);}.cls-72{fill:url(#Áåçûìÿííûé_ãðàäèåíò_254-16);}.cls-73{fill:url(#Áåçûìÿííûé_ãðàäèåíò_254-17);}.cls-74{fill:url(#Áåçûìÿííûé_ãðàäèåíò_254-18);}.cls-75{fill:url(#Áåçûìÿííûé_ãðàäèåíò_4-4);}.cls-76{fill:url(#Áåçûìÿííûé_ãðàäèåíò_3-22);}.cls-77{fill:url(#Áåçûìÿííûé_ãðàäèåíò_254-19);}.cls-78{fill:url(#Áåçûìÿííûé_ãðàäèåíò_254-20);}.cls-79{fill:url(#Áåçûìÿííûé_ãðàäèåíò_254-21);}.cls-80{fill:url(#Áåçûìÿííûé_ãðàäèåíò_254-22);}.cls-81{fill:url(#Áåçûìÿííûé_ãðàäèåíò_254-23);}.cls-82{fill:url(#Áåçûìÿííûé_ãðàäèåíò_254-24);}</style><radialGradient id="Áåçûìÿííûé_ãðàäèåíò_26" cx="380.01" cy="-1.19" fx="849.8657696127225" fy="-258.6293890885039" r="535.76" gradientTransform="translate(0 55.61) scale(1 0.32)" gradientUnits="userSpaceOnUse"><stop offset="0" stop-color="#2b237c"/><stop offset="1" stop-color="#180d5b"/></radialGradient><linearGradient id="Áåçûìÿííûé_ãðàäèåíò_4" x1="488.93" y1="63.25" x2="506.21" y2="63.25" gradientUnits="userSpaceOnUse"><stop offset="0.25" stop-color="#5761d7"/><stop offset="0.44" stop-color="#6c74df"/><stop offset="0.82" stop-color="#a2a6f5"/><stop offset="1" stop-color="#bcbeff"/></linearGradient><linearGradient id="Áåçûìÿííûé_ãðàäèåíò_3" x1="488.93" y1="58.6" x2="513.18" y2="58.6" gradientUnits="userSpaceOnUse"><stop offset="0" stop-color="#c0bff6"/><stop offset="0.29" stop-color="#c5c4f7"/><stop offset="0.64" stop-color="#d3d2f9"/><stop offset="1" stop-color="#e9e9fd"/></linearGradient><linearGradient id="Áåçûìÿííûé_ãðàäèåíò_254" x1="493.56" y1="58.6" x2="508.55" y2="58.6" gradientUnits="userSpaceOnUse"><stop offset="0" stop-color="#42e8e0"/><stop offset="0.15" stop-color="#43e3e0"/><stop offset="0.33" stop-color="#45d5df"/><stop offset="0.52" stop-color="#49bddd"/><stop offset="0.72" stop-color="#4e9cdb"/><stop offset="0.93" stop-color="#5472d8"/><stop offset="1" stop-color="#5761d7"/></linearGradient><linearGradient id="Áåçûìÿííûé_ãðàäèåíò_254-2" x1="501.06" y1="53.48" x2="508.55" y2="53.48" xlink:href="#Áåçûìÿííûé_ãðàäèåíò_254"/><linearGradient id="Áåçûìÿííûé_ãðàäèåíò_254-3" x1="493.56" y1="53.48" x2="501.06" y2="53.48" xlink:href="#Áåçûìÿííûé_ãðàäèåíò_254"/><linearGradient id="Áåçûìÿííûé_ãðàäèåíò_254-4" x1="493.56" y1="52.63" x2="508.55" y2="52.63" xlink:href="#Áåçûìÿííûé_ãðàäèåíò_254"/><linearGradient id="Áåçûìÿííûé_ãðàäèåíò_254-5" x1="501.06" y1="57.74" x2="508.55" y2="57.74" xlink:href="#Áåçûìÿííûé_ãðàäèåíò_254"/><linearGradient id="Áåçûìÿííûé_ãðàäèåíò_254-6" x1="493.56" y1="57.74" x2="501.06" y2="57.74" xlink:href="#Áåçûìÿííûé_ãðàäèåíò_254"/><radialGradient id="Áåçûìÿííûé_ãðàäèåíò_23" cx="425.07" cy="-30.16" r="67.78" gradientTransform="matrix(0.74, 0.42, -0.74, 0.42, 160.91, -78.02)" gradientUnits="userSpaceOnUse"><stop offset="0" stop-color="#42e8e0"/><stop offset="0.12" stop-color="#39bdc0"/><stop offset="0.28" stop-color="#2f899a"/><stop offset="0.45" stop-color="#265f7b"/><stop offset="0.6" stop-color="#1f3d62"/><stop offset="0.75" stop-color="#1a2550"/><stop offset="0.88" stop-color="#171746"/><stop offset="1" stop-color="#161242"/></radialGradient><linearGradient id="Áåçûìÿííûé_ãðàäèåíò_24" x1="3197.2" y1="73.59" x2="3235.41" y2="73.59" gradientTransform="translate(-2743.73)" gradientUnits="userSpaceOnUse"><stop offset="0" stop-color="#5761d7"/><stop offset="0.18" stop-color="#5c66d9"/><stop offset="0.39" stop-color="#6a73df"/><stop offset="0.61" stop-color="#8289e8"/><stop offset="0.85" stop-color="#a3a7f5"/><stop offset="1" stop-color="#bcbeff"/></linearGradient><linearGradient id="Áåçûìÿííûé_ãðàäèåíò_3-2" x1="3210.04" y1="72.33" x2="3248.26" y2="72.33" gradientTransform="translate(-2743.73)" xlink:href="#Áåçûìÿííûé_ãðàäèåíò_3"/><linearGradient id="Áåçûìÿííûé_ãðàäèåíò_3-3" x1="3207.56" y1="69.43" x2="3217.34" y2="69.43" gradientTransform="translate(-2743.73)" xlink:href="#Áåçûìÿííûé_ãðàäèåíò_3"/><linearGradient id="Áåçûìÿííûé_ãðàäèåíò_3-4" x1="3208.32" y1="67.69" x2="3235.37" y2="67.69" gradientTransform="translate(-2743.73)" xlink:href="#Áåçûìÿííûé_ãðàäèåíò_3"/><linearGradient id="Áåçûìÿííûé_ãðàäèåíò_24-2" x1="3208.32" y1="74.53" x2="3212.97" y2="74.53" xlink:href="#Áåçûìÿííûé_ãðàäèåíò_24"/><linearGradient id="Áåçûìÿííûé_ãðàäèåíò_24-3" x1="202.81" y1="73.59" x2="241.01" y2="73.59" gradientTransform="matrix(-1, 0, 0, 1, 751.4, 0)" xlink:href="#Áåçûìÿííûé_ãðàäèåíò_24"/><linearGradient id="Áåçûìÿííûé_ãðàäèåíò_3-5" x1="215.64" y1="72.33" x2="253.87" y2="72.33" gradientTransform="matrix(-1, 0, 0, 1, 751.4, 0)" xlink:href="#Áåçûìÿííûé_ãðàäèåíò_3"/><linearGradient id="Áåçûìÿííûé_ãðàäèåíò_3-6" x1="213.16" y1="69.43" x2="222.95" y2="69.43" gradientTransform="matrix(-1, 0, 0, 1, 751.4, 0)" xlink:href="#Áåçûìÿííûé_ãðàäèåíò_3"/><linearGradient id="Áåçûìÿííûé_ãðàäèåíò_3-7" x1="213.93" y1="67.69" x2="240.98" y2="67.69" gradientTransform="matrix(-1, 0, 0, 1, 751.4, 0)" xlink:href="#Áåçûìÿííûé_ãðàäèåíò_3"/><linearGradient id="Áåçûìÿííûé_ãðàäèåíò_24-4" x1="213.93" y1="74.53" x2="218.57" y2="74.53" gradientTransform="matrix(-1, 0, 0, 1, 751.4, 0)" xlink:href="#Áåçûìÿííûé_ãðàäèåíò_24"/><linearGradient id="Áåçûìÿííûé_ãðàäèåíò_3-8" x1="511.94" y1="93.17" x2="511.94" y2="78.48" xlink:href="#Áåçûìÿííûé_ãðàäèåíò_3"/><linearGradient id="Áåçûìÿííûé_ãðàäèåíò_3-9" x1="511.94" y1="80.99" x2="511.94" y2="66.31" xlink:href="#Áåçûìÿííûé_ãðàäèåíò_3"/><linearGradient id="Áåçûìÿííûé_ãðàäèåíò_3-10" x1="2784.71" y1="88.39" x2="2812.24" y2="88.39" gradientTransform="translate(-2278.69)" xlink:href="#Áåçûìÿííûé_ãðàäèåíò_3"/><linearGradient id="Áåçûìÿííûé_ãðàäèåíò_24-5" x1="2784.71" y1="95.35" x2="2789.44" y2="95.35" gradientTransform="translate(-2278.69)" xlink:href="#Áåçûìÿííûé_ãðàäèåíò_24"/><linearGradient id="Áåçûìÿííûé_ãðàäèåíò_24-6" x1="2788.4" y1="103.17" x2="2827.28" y2="103.17" gradientTransform="translate(-2278.69)" xlink:href="#Áåçûìÿííûé_ãðàäèåíò_24"/><linearGradient id="Áåçûìÿííûé_ãðàäèåíò_3-11" x1="2801.47" y1="101.89" x2="2840.37" y2="101.89" gradientTransform="translate(-2278.69)" xlink:href="#Áåçûìÿííûé_ãðàäèåíò_3"/><linearGradient id="Áåçûìÿííûé_ãðàäèåíò_3-12" x1="2808.05" y1="104.07" x2="2818.01" y2="104.07" gradientTransform="translate(-2278.69)" xlink:href="#Áåçûìÿííûé_ãðàäèåíò_3"/><clipPath id="clip-path"><polygon id="SVGID" class="cls-1" points="530.23 73.69 507.26 86.77 510.11 103.32 533.07 90.25 530.23 73.69"/></clipPath><linearGradient id="Áåçûìÿííûé_ãðàäèåíò_3-13" x1="2786.6" y1="93.4" x2="2825.51" y2="93.4" gradientTransform="translate(-2278.69)" xlink:href="#Áåçûìÿííûé_ãðàäèåíò_3"/><linearGradient id="Áåçûìÿííûé_ãðàäèåíò_3-14" x1="2784.04" y1="90.58" x2="2794" y2="90.58" gradientTransform="translate(-2278.69)" xlink:href="#Áåçûìÿííûé_ãðàäèåíò_3"/><linearGradient id="Áåçûìÿííûé_ãðàäèåíò_3-15" x1="-209.68" y1="88.39" x2="-182.15" y2="88.39" gradientTransform="matrix(-1, 0, 0, 1, 286.37, 0)" xlink:href="#Áåçûìÿííûé_ãðàäèåíò_3"/><linearGradient id="Áåçûìÿííûé_ãðàäèåíò_24-7" x1="-209.68" y1="95.35" x2="-204.95" y2="95.35" gradientTransform="matrix(-1, 0, 0, 1, 286.37, 0)" xlink:href="#Áåçûìÿííûé_ãðàäèåíò_24"/><linearGradient id="Áåçûìÿííûé_ãðàäèåíò_24-8" x1="-205.99" y1="103.17" x2="-167.11" y2="103.17" gradientTransform="matrix(-1, 0, 0, 1, 286.37, 0)" xlink:href="#Áåçûìÿííûé_ãðàäèåíò_24"/><linearGradient id="Áåçûìÿííûé_ãðàäèåíò_3-16" x1="-192.93" y1="101.89" x2="-154.02" y2="101.89" gradientTransform="matrix(-1, 0, 0, 1, 286.37, 0)" xlink:href="#Áåçûìÿííûé_ãðàäèåíò_3"/><linearGradient id="Áåçûìÿííûé_ãðàäèåíò_3-17" x1="-186.34" y1="104.07" x2="-176.38" y2="104.07" gradientTransform="matrix(-1, 0, 0, 1, 286.37, 0)" xlink:href="#Áåçûìÿííûé_ãðàäèåíò_3"/><clipPath id="clip-path-2"><polygon id="SVGID-2" data-name="SVGID" class="cls-1" points="471.84 73.69 494.81 86.77 491.96 103.32 469 90.25 471.84 73.69"/></clipPath><linearGradient id="Áåçûìÿííûé_ãðàäèåíò_3-18" x1="-207.79" y1="93.4" x2="-168.89" y2="93.4" gradientTransform="matrix(-1, 0, 0, 1, 286.37, 0)" xlink:href="#Áåçûìÿííûé_ãðàäèåíò_3"/><linearGradient id="Áåçûìÿííûé_ãðàäèåíò_3-19" x1="-210.35" y1="90.58" x2="-200.39" y2="90.58" gradientTransform="matrix(-1, 0, 0, 1, 286.37, 0)" xlink:href="#Áåçûìÿííûé_ãðàäèåíò_3"/><linearGradient id="Áåçûìÿííûé_ãðàäèåíò_22" x1="501.03" y1="74.93" x2="501.03" y2="35.43" gradientTransform="matrix(1, 0, 0, 1, 0, 0)" xlink:href="#Áåçûìÿííûé_ãðàäèåíò_23"/><linearGradient id="Áåçûìÿííûé_ãðàäèåíò_4-2" x1="488.93" y1="116.41" x2="506.21" y2="116.41" xlink:href="#Áåçûìÿííûé_ãðàäèåíò_4"/><linearGradient id="Áåçûìÿííûé_ãðàäèåíò_3-20" x1="488.93" y1="111.75" x2="513.18" y2="111.75" xlink:href="#Áåçûìÿííûé_ãðàäèåíò_3"/><linearGradient id="Áåçûìÿííûé_ãðàäèåíò_254-7" x1="493.56" y1="111.75" x2="508.55" y2="111.75" xlink:href="#Áåçûìÿííûé_ãðàäèåíò_254"/><linearGradient id="Áåçûìÿííûé_ãðàäèåíò_254-8" x1="501.06" y1="106.64" x2="508.55" y2="106.64" xlink:href="#Áåçûìÿííûé_ãðàäèåíò_254"/><linearGradient id="Áåçûìÿííûé_ãðàäèåíò_254-9" x1="493.56" y1="106.64" x2="501.06" y2="106.64" xlink:href="#Áåçûìÿííûé_ãðàäèåíò_254"/><linearGradient id="Áåçûìÿííûé_ãðàäèåíò_254-10" x1="493.56" y1="105.79" x2="508.55" y2="105.79" xlink:href="#Áåçûìÿííûé_ãðàäèåíò_254"/><linearGradient id="Áåçûìÿííûé_ãðàäèåíò_254-11" x1="501.06" y1="110.9" x2="508.55" y2="110.9" xlink:href="#Áåçûìÿííûé_ãðàäèåíò_254"/><linearGradient id="Áåçûìÿííûé_ãðàäèåíò_254-12" x1="493.56" y1="110.9" x2="501.06" y2="110.9" xlink:href="#Áåçûìÿííûé_ãðàäèåíò_254"/><linearGradient id="Áåçûìÿííûé_ãðàäèåíò_4-3" x1="536.47" y1="90.13" x2="553.75" y2="90.13" xlink:href="#Áåçûìÿííûé_ãðàäèåíò_4"/><linearGradient id="Áåçûìÿííûé_ãðàäèåíò_3-21" x1="536.47" y1="85.48" x2="560.72" y2="85.48" xlink:href="#Áåçûìÿííûé_ãðàäèåíò_3"/><linearGradient id="Áåçûìÿííûé_ãðàäèåíò_254-13" x1="541.1" y1="85.48" x2="556.09" y2="85.48" xlink:href="#Áåçûìÿííûé_ãðàäèåíò_254"/><linearGradient id="Áåçûìÿííûé_ãðàäèåíò_254-14" x1="548.59" y1="80.36" x2="556.09" y2="80.36" xlink:href="#Áåçûìÿííûé_ãðàäèåíò_254"/><linearGradient id="Áåçûìÿííûé_ãðàäèåíò_254-15" x1="541.1" y1="80.36" x2="548.59" y2="80.36" xlink:href="#Áåçûìÿííûé_ãðàäèåíò_254"/><linearGradient id="Áåçûìÿííûé_ãðàäèåíò_254-16" x1="541.1" y1="79.51" x2="556.09" y2="79.51" xlink:href="#Áåçûìÿííûé_ãðàäèåíò_254"/><linearGradient id="Áåçûìÿííûé_ãðàäèåíò_254-17" x1="548.59" y1="84.63" x2="556.09" y2="84.63" xlink:href="#Áåçûìÿííûé_ãðàäèåíò_254"/><linearGradient id="Áåçûìÿííûé_ãðàäèåíò_254-18" x1="541.1" y1="84.63" x2="548.59" y2="84.63" xlink:href="#Áåçûìÿííûé_ãðàäèåíò_254"/><linearGradient id="Áåçûìÿííûé_ãðàäèåíò_4-4" x1="441.35" y1="90.13" x2="458.63" y2="90.13" xlink:href="#Áåçûìÿííûé_ãðàäèåíò_4"/><linearGradient id="Áåçûìÿííûé_ãðàäèåíò_3-22" x1="441.35" y1="85.48" x2="465.6" y2="85.48" xlink:href="#Áåçûìÿííûé_ãðàäèåíò_3"/><linearGradient id="Áåçûìÿííûé_ãðàäèåíò_254-19" x1="445.98" y1="85.48" x2="460.97" y2="85.48" xlink:href="#Áåçûìÿííûé_ãðàäèåíò_254"/><linearGradient id="Áåçûìÿííûé_ãðàäèåíò_254-20" x1="453.48" y1="80.36" x2="460.97" y2="80.36" xlink:href="#Áåçûìÿííûé_ãðàäèåíò_254"/><linearGradient id="Áåçûìÿííûé_ãðàäèåíò_254-21" x1="445.98" y1="80.36" x2="453.48" y2="80.36" xlink:href="#Áåçûìÿííûé_ãðàäèåíò_254"/><linearGradient id="Áåçûìÿííûé_ãðàäèåíò_254-22" x1="445.98" y1="79.51" x2="460.97" y2="79.51" xlink:href="#Áåçûìÿííûé_ãðàäèåíò_254"/><linearGradient id="Áåçûìÿííûé_ãðàäèåíò_254-23" x1="453.48" y1="84.63" x2="460.97" y2="84.63" xlink:href="#Áåçûìÿííûé_ãðàäèåíò_254"/><linearGradient id="Áåçûìÿííûé_ãðàäèåíò_254-24" x1="445.98" y1="84.63" x2="453.48" y2="84.63" xlink:href="#Áåçûìÿííûé_ãðàäèåíò_254"/></defs><title>textBook_4</title><g class="cls-2"><g id="Layer_2" data-name="Layer 2"><g id="Ñëîé_1" data-name="Ñëîé 1"><rect class="cls-3" width="600" height="142.04"/><path class="cls-4" d="M501.06,71.25l-13.12-7.46,13.12-7.46,13.12,7.46Zm-12.75-7.46L501.06,71l12.74-7.25-12.75-7.25Z"/><polygon class="cls-5" points="513.18 61.01 513.18 58.59 501.06 65.19 488.93 58.59 488.93 61.01 501.06 67.91 513.18 61.01"/><polygon class="cls-6" points="501.06 65.49 488.93 58.59 501.06 51.7 513.18 58.59 501.06 65.49"/><polygon class="cls-7" points="501.06 65.3 489.11 58.5 488.93 58.59 501.06 65.49 513.18 58.59 513.01 58.5 501.06 65.3"/><polygon class="cls-8" points="501.06 62.86 493.56 58.59 501.06 54.33 508.55 58.59 501.06 62.86"/><polygon class="cls-9" points="501.06 62.86 493.56 58.59 501.06 54.33 508.55 58.59 501.06 62.86"/><polygon class="cls-10" points="501.06 48.36 508.55 52.63 508.55 58.59 501.06 54.33 501.06 48.36"/><polygon class="cls-11" points="501.06 54.33 493.56 58.59 493.56 52.63 501.06 48.36 501.06 54.33"/><polygon class="cls-12" points="501.06 56.89 493.56 52.63 501.06 48.36 508.55 52.63 501.06 56.89"/><polygon class="cls-13" points="501.06 56.89 501.06 62.86 508.55 58.59 508.55 52.63 501.06 56.89"/><polygon class="cls-14" points="493.56 52.63 493.56 58.59 501.06 62.86 501.06 56.89 493.56 52.63"/><path class="cls-15" d="M550.11,117.92c-27.86,15.85-73,15.85-100.88,0s-27.86-41.55,0-57.41,73-15.85,100.88,0S578,102.06,550.11,117.92Z"/><g class="cls-16"><path class="cls-17" d="M468,86.35a2.14,2.14,0,0,1-1.06-.28l-12.17-6.93a.6.6,0,0,1,0-1l22-12.54a.12.12,0,0,1,.12,0l13.17,7.49a.6.6,0,0,1,0,1l-21,12A2.14,2.14,0,0,1,468,86.35Zm8.86-20.54-22,12.5a.36.36,0,0,0,0,.63l12.17,6.93a1.93,1.93,0,0,0,1.87,0l21-12a.36.36,0,0,0,0-.63Z"/></g><path class="cls-18" d="M491.68,69.69l-1.28.66-12.81-7.29a.94.94,0,0,0-.84,0l-22.1,12.58c-.21-.12-1.18-.57-1.18-.57l.47,1.2h0a.28.28,0,0,0,.13.14l13.5,7.68a.94.94,0,0,0,.84,0L491,71.21a.4.4,0,0,0,.19-.2h0Z"/><path class="cls-19" d="M491.48,69.9,468.3,83.09a1,1,0,0,1-.86,0l-13.83-7.87c-.22-.13-.19-.34.06-.49l23.18-13.19a1,1,0,0,1,.86,0l13.83,7.87C491.76,69.53,491.73,69.75,491.48,69.9Z"/><path class="cls-20" d="M491.48,69.76,468.3,83a1,1,0,0,1-.86,0l-13.83-7.87a.28.28,0,0,1-.13-.15.23.23,0,0,0,.13.28l13.83,7.87a1,1,0,0,0,.86,0L491.48,69.9c.17-.1.24-.23.2-.34A.41.41,0,0,1,491.48,69.76Z"/><path class="cls-21" d="M461.31,80.23V80s0,0,0,0l.9.51a.08.08,0,0,1,0,.06v.25s0,0,0,0l-.9-.51A.08.08,0,0,1,461.31,80.23Z"/><path class="cls-21" d="M462.65,81v-.25s0,0,0,0l.9.51a.08.08,0,0,1,0,.06v.25s0,0,0,0l-.9-.51A.08.08,0,0,1,462.65,81Z"/><path class="cls-22" d="M461.41,77l19.26-11a.42.42,0,0,1,.41,0L487.95,70a.14.14,0,0,1,0,.25l-19.25,11a.42.42,0,0,1-.41,0l-6.87-3.91A.14.14,0,0,1,461.41,77Z"/><path class="cls-23" d="M461.41,77.29l.07,0,19.19-10.92a.42.42,0,0,1,.41,0l6.79,3.87.07,0a.14.14,0,0,0,0-.25l-6.86-3.91a.42.42,0,0,0-.41,0L461.41,77A.14.14,0,0,0,461.41,77.29Z"/><polygon class="cls-24" points="481.61 67.07 463.86 77.17 462.98 76.82 480.86 66.65 481.61 67.07"/><polygon class="cls-24" points="483.43 68.11 467.74 77.04 466.99 76.61 482.69 67.68 483.43 68.11"/><polygon class="cls-24" points="484.62 68.78 466.14 79.3 465.39 78.88 483.87 68.36 484.62 68.78"/><polygon class="cls-24" points="485.8 69.46 467.33 79.97 466.58 79.55 485.06 69.04 485.8 69.46"/><polygon class="cls-24" points="486.99 70.14 468.51 80.65 467.77 80.23 486.25 69.71 486.99 70.14"/><polygon class="cls-24" points="463.86 77.17 463.12 77.59 462.37 77.17 463.12 76.74 463.86 77.17"/><polygon class="cls-24" points="468.64 76.53 464.94 78.63 464.2 78.2 467.92 76.09 468.64 76.53"/><path class="cls-25" d="M468.27,72.13l5.19-3a.22.22,0,0,0,0-.42l-3.55-2a.82.82,0,0,0-.74,0l-5.19,3a.22.22,0,0,0,0,.42l3.55,2A.82.82,0,0,0,468.27,72.13Z"/><path class="cls-23" d="M464,69.86l5.19-3a.82.82,0,0,1,.74,0l3.55,2a.32.32,0,0,1,.13.12c.05-.1,0-.21-.13-.29l-3.55-2a.82.82,0,0,0-.74,0l-5.19,3c-.14.08-.18.19-.13.29A.32.32,0,0,1,464,69.86Z"/><path class="cls-26" d="M491.64,69.35l-2.93-17.13.24-.1-.35-.2h0a.26.26,0,0,0-.27,0L464.9,65.27a.65.65,0,0,0-.3.59l3,17.27a.22.22,0,0,0,.12.18h0l.35.2.06-.32h0l23.28-13.25A.65.65,0,0,0,491.64,69.35Z"/><path class="cls-27" d="M465,65.73l-.38-.17a.52.52,0,0,0,0,.29l3,17.27a.22.22,0,0,0,.12.18h0l.35.2.06-.32h0l1.18-.67Z"/><path class="cls-28" d="M491.7,70.14,468.29,83.47c-.18.1-.34,0-.37-.14l-3-17.27a.65.65,0,0,1,.3-.59l23.42-13.33c.18-.1.34,0,.37.14l3,17.27A.65.65,0,0,1,491.7,70.14Z"/><g class="cls-16"><path class="cls-17" d="M534.06,86.35a2.14,2.14,0,0,1-1.06-.28h0l-21-12a.6.6,0,0,1,0-1l13.17-7.49a.12.12,0,0,1,.12,0l22,12.54a.6.6,0,0,1,0,1l-12.18,6.93A2.14,2.14,0,0,1,534.06,86.35Zm-.94-.49a1.93,1.93,0,0,0,1.87,0l12.17-6.93a.36.36,0,0,0,0-.63l-22-12.5,0,0-13.07,7.44a.36.36,0,0,0,0,.63Z"/></g><path class="cls-29" d="M510.39,69.69l1.28.66,12.81-7.29a.94.94,0,0,1,.84,0l22.1,12.58c.21-.12,1.18-.57,1.18-.57l-.47,1.2h0a.28.28,0,0,1-.13.14l-13.5,7.68a.94.94,0,0,1-.84,0L511,71.21a.4.4,0,0,1-.19-.2h0Z"/><path class="cls-30" d="M510.59,69.9l23.18,13.19a1,1,0,0,0,.86,0l13.83-7.87c.22-.13.19-.34-.06-.49L525.22,61.57a1,1,0,0,0-.86,0l-13.83,7.87C510.31,69.53,510.34,69.75,510.59,69.9Z"/><path class="cls-20" d="M510.59,69.76,533.77,83a1,1,0,0,0,.86,0l13.83-7.87a.28.28,0,0,0,.13-.15.23.23,0,0,1-.13.28l-13.83,7.87a1,1,0,0,1-.86,0L510.59,69.9c-.17-.1-.24-.23-.2-.34A.41.41,0,0,0,510.59,69.76Z"/><path class="cls-21" d="M540.76,80.23V80s0,0,0,0l-.9.51a.08.08,0,0,0,0,.06v.25s0,0,0,0l.9-.51A.08.08,0,0,0,540.76,80.23Z"/><path class="cls-21" d="M539.42,81v-.25s0,0,0,0l-.9.51a.08.08,0,0,0,0,.06v.25s0,0,0,0l.9-.51A.08.08,0,0,0,539.42,81Z"/><path class="cls-22" d="M540.66,77l-19.26-11a.42.42,0,0,0-.41,0L514.12,70a.14.14,0,0,0,0,.25l19.25,11a.42.42,0,0,0,.41,0l6.87-3.91A.14.14,0,0,0,540.66,77Z"/><path class="cls-23" d="M540.66,77.29l-.07,0L521.4,66.41a.42.42,0,0,0-.41,0l-6.79,3.87-.07,0a.14.14,0,0,1,0-.25L521,66.08a.42.42,0,0,1,.41,0l19.26,11A.14.14,0,0,1,540.66,77.29Z"/><polygon class="cls-24" points="520.47 67.07 538.21 77.17 539.09 76.82 521.21 66.65 520.47 67.07"/><polygon class="cls-24" points="518.64 68.11 534.34 77.04 535.08 76.61 519.38 67.68 518.64 68.11"/><polygon class="cls-24" points="517.45 68.78 535.93 79.3 536.67 78.88 518.2 68.36 517.45 68.78"/><polygon class="cls-24" points="516.26 69.46 534.74 79.97 535.49 79.55 517.01 69.04 516.26 69.46"/><polygon class="cls-24" points="515.08 70.14 533.55 80.65 534.3 80.23 515.82 69.71 515.08 70.14"/><polygon class="cls-24" points="538.21 77.17 538.95 77.59 539.7 77.17 538.95 76.74 538.21 77.17"/><polygon class="cls-24" points="533.43 76.53 537.13 78.63 537.87 78.2 534.15 76.09 533.43 76.53"/><path class="cls-31" d="M533.8,72.13l-5.19-3a.22.22,0,0,1,0-.42l3.55-2a.82.82,0,0,1,.74,0l5.19,3a.22.22,0,0,1,0,.42l-3.55,2A.82.82,0,0,1,533.8,72.13Z"/><path class="cls-23" d="M538.09,69.86l-5.19-3a.82.82,0,0,0-.74,0l-3.55,2a.32.32,0,0,0-.13.12c-.05-.1,0-.21.13-.29l3.55-2a.82.82,0,0,1,.74,0l5.19,3c.14.08.18.19.13.29A.32.32,0,0,0,538.09,69.86Z"/><path class="cls-32" d="M510.43,69.35l2.93-17.13-.24-.1.35-.2h0a.26.26,0,0,1,.27,0l23.42,13.33a.65.65,0,0,1,.3.59l-3,17.27a.22.22,0,0,1-.12.18h0l-.35.2-.06-.32h0L510.73,69.94A.65.65,0,0,1,510.43,69.35Z"/><path class="cls-33" d="M537,65.73l.39-.17a.52.52,0,0,1,0,.29l-3,17.27a.22.22,0,0,1-.12.18h0l-.35.2-.06-.32h0l-1.18-.67Z"/><path class="cls-28" d="M510.36,70.14l23.42,13.33c.18.1.34,0,.37-.14l3-17.27a.65.65,0,0,0-.3-.59L513.38,52.15c-.18-.1-.34,0-.37.14l-3,17.27A.65.65,0,0,0,510.36,70.14Z"/><polygon class="cls-34" points="501.04 90.48 479.23 78.07 501.03 65.66 522.84 78.07 501.04 90.48"/><polygon class="cls-28" points="501.04 87.09 485.18 78.07 501.03 69.05 516.88 78.07 501.04 87.09"/><polygon class="cls-20" points="501.03 69.66 516.35 78.38 516.88 78.07 501.03 69.05 485.18 78.07 485.72 78.38 501.03 69.66"/><polygon class="cls-35" points="522.84 78.07 522.84 85.1 501.04 97.51 501.04 90.48 522.84 78.07"/><polygon class="cls-24" points="479.23 78.07 479.23 85.1 501.04 97.51 501.04 90.48 479.23 78.07"/><g class="cls-36"><polygon class="cls-28" points="480.71 81.23 480.71 83.44 499.56 94.17 499.56 91.96 480.71 81.23"/></g><polygon class="cls-20" points="501.04 90.08 479.58 77.87 479.23 78.07 501.04 90.48 522.84 78.07 522.49 77.87 501.04 90.08"/><polygon class="cls-28" points="519.57 83 519.57 84.26 504.31 92.94 504.31 91.69 519.57 83"/><polygon class="cls-37" points="479.23 78.07 479.23 85.1 501.04 97.51 501.04 90.48 479.23 78.07"/><polygon class="cls-17" points="494.67 90.11 490.72 87.86 490.72 88.32 494.67 90.57 494.67 90.11"/><polygon class="cls-17" points="490.15 87.54 489.08 86.93 489.08 87.39 490.15 88 490.15 87.54"/><polygon class="cls-17" points="485.14 84.69 482.95 83.44 482.95 83.91 485.14 85.15 485.14 84.69"/><polygon class="cls-17" points="487.14 85.82 485.56 84.92 485.55 85.39 487.14 86.29 487.14 85.82"/><polygon class="cls-17" points="488.62 86.67 487.55 86.06 487.55 86.52 488.62 87.13 488.62 86.67"/><polygon class="cls-17" points="501.06 72.15 500.37 71.75 501.06 71.36 501.75 71.75 501.06 72.15"/><polygon class="cls-38" points="502.44 72.94 501.75 72.54 502.44 72.15 503.13 72.54 502.44 72.94"/><polygon class="cls-39" points="503.83 73.72 503.13 73.33 503.83 72.94 504.52 73.33 503.83 73.72"/><polygon class="cls-17" points="505.21 74.51 504.52 74.12 505.21 73.72 505.9 74.12 505.21 74.51"/><polygon class="cls-39" points="506.6 75.3 505.9 74.91 506.6 74.51 507.29 74.91 506.6 75.3"/><polygon class="cls-17" points="507.98 76.09 507.29 75.69 507.98 75.3 508.67 75.69 507.98 76.09"/><polygon class="cls-17" points="509.37 76.88 508.67 76.48 509.37 76.09 510.06 76.48 509.37 76.88"/><polygon class="cls-17" points="510.75 77.66 510.06 77.27 510.75 76.88 511.44 77.27 510.75 77.66"/><polygon class="cls-38" points="512.13 78.45 511.44 78.06 512.13 77.66 512.83 78.06 512.13 78.45"/><polygon class="cls-17" points="499.67 72.94 498.97 72.55 499.67 72.15 500.36 72.55 499.67 72.94"/><polygon class="cls-17" points="501.05 73.73 500.36 73.33 501.05 72.94 501.74 73.33 501.05 73.73"/><polygon class="cls-17" points="502.44 74.52 501.74 74.12 502.44 73.73 503.13 74.12 502.44 74.52"/><polygon class="cls-17" points="503.82 75.3 503.13 74.91 503.82 74.52 504.51 74.91 503.82 75.3"/><polygon class="cls-17" points="505.21 76.09 504.51 75.7 505.21 75.3 505.9 75.7 505.21 76.09"/><polygon class="cls-17" points="506.59 76.88 505.9 76.48 506.59 76.09 507.28 76.48 506.59 76.88"/><polygon class="cls-17" points="507.98 77.67 507.28 77.27 507.98 76.88 508.67 77.27 507.98 77.67"/><polygon class="cls-17" points="509.36 78.45 508.67 78.06 509.36 77.67 510.05 78.06 509.36 78.45"/><polygon class="cls-17" points="510.75 79.24 510.05 78.85 510.75 78.45 511.44 78.85 510.75 79.24"/><polygon class="cls-17" points="498.28 73.73 497.58 73.34 498.28 72.94 498.97 73.34 498.28 73.73"/><polygon class="cls-17" points="499.66 74.52 498.97 74.12 499.66 73.73 500.35 74.12 499.66 74.52"/><polygon class="cls-17" points="501.05 75.31 500.35 74.91 501.05 74.52 501.74 74.91 501.05 75.31"/><polygon class="cls-38" points="502.43 76.09 501.74 75.7 502.43 75.31 503.12 75.7 502.43 76.09"/><polygon class="cls-39" points="503.81 76.88 503.12 76.49 503.81 76.09 504.51 76.49 503.81 76.88"/><polygon class="cls-39" points="505.2 77.67 504.51 77.28 505.2 76.88 505.89 77.28 505.2 77.67"/><polygon class="cls-17" points="506.58 78.46 505.89 78.06 506.58 77.67 507.28 78.06 506.58 78.46"/><polygon class="cls-17" points="507.97 79.25 507.28 78.85 507.97 78.46 508.66 78.85 507.97 79.25"/><polygon class="cls-17" points="509.36 80.03 508.66 79.64 509.36 79.25 510.05 79.64 509.36 80.03"/><polygon class="cls-39" points="496.89 74.52 496.19 74.13 496.89 73.73 497.58 74.13 496.89 74.52"/><polygon class="cls-39" points="498.27 75.31 497.58 74.92 498.27 74.52 498.96 74.92 498.27 75.31"/><polygon class="cls-38" points="499.65 76.1 498.96 75.7 499.65 75.31 500.35 75.7 499.65 76.1"/><polygon class="cls-17" points="501.04 76.89 500.35 76.49 501.04 76.1 501.73 76.49 501.04 76.89"/><polygon class="cls-17" points="502.43 77.67 501.73 77.28 502.43 76.89 503.12 77.28 502.43 77.67"/><polygon class="cls-17" points="503.81 78.46 503.12 78.07 503.81 77.67 504.5 78.07 503.81 78.46"/><polygon class="cls-39" points="505.19 79.25 504.5 78.86 505.19 78.46 505.89 78.86 505.19 79.25"/><polygon class="cls-17" points="506.58 80.04 505.89 79.64 506.58 79.25 507.27 79.64 506.58 80.04"/><polygon class="cls-17" points="507.96 80.83 507.27 80.43 507.96 80.04 508.66 80.43 507.96 80.83"/><polygon class="cls-17" points="495.5 75.31 494.8 74.92 495.5 74.53 496.19 74.92 495.5 75.31"/><polygon class="cls-17" points="496.88 76.1 496.19 75.71 496.88 75.31 497.57 75.71 496.88 76.1"/><polygon class="cls-17" points="498.26 76.89 497.57 76.5 498.26 76.1 498.96 76.5 498.26 76.89"/><polygon class="cls-17" points="499.65 77.68 498.96 77.28 499.65 76.89 500.34 77.28 499.65 77.68"/><polygon class="cls-17" points="501.04 78.47 500.34 78.07 501.04 77.68 501.73 78.07 501.04 78.47"/><polygon class="cls-17" points="502.42 79.25 501.73 78.86 502.42 78.47 503.11 78.86 502.42 79.25"/><polygon class="cls-17" points="503.8 80.04 503.11 79.65 503.8 79.25 504.5 79.65 503.8 80.04"/><polygon class="cls-17" points="505.19 80.83 504.5 80.44 505.19 80.04 505.88 80.44 505.19 80.83"/><polygon class="cls-17" points="506.57 81.62 505.88 81.22 506.57 80.83 507.27 81.22 506.57 81.62"/><polygon class="cls-17" points="494.11 76.1 493.41 75.71 494.11 75.32 494.8 75.71 494.11 76.1"/><polygon class="cls-17" points="495.49 76.89 494.8 76.5 495.49 76.1 496.18 76.5 495.49 76.89"/><polygon class="cls-39" points="496.88 77.68 496.18 77.29 496.88 76.89 497.57 77.29 496.88 77.68"/><polygon class="cls-17" points="498.26 78.47 497.57 78.07 498.26 77.68 498.95 78.07 498.26 78.47"/><polygon class="cls-38" points="499.64 79.26 498.95 78.86 499.64 78.47 500.34 78.86 499.64 79.26"/><polygon class="cls-17" points="501.03 80.04 500.34 79.65 501.03 79.26 501.72 79.65 501.03 80.04"/><polygon class="cls-17" points="502.41 80.83 501.72 80.44 502.41 80.04 503.11 80.44 502.41 80.83"/><polygon class="cls-17" points="503.8 81.62 503.11 81.23 503.8 80.83 504.49 81.23 503.8 81.62"/><polygon class="cls-17" points="505.18 82.41 504.49 82.01 505.18 81.62 505.88 82.01 505.18 82.41"/><polygon class="cls-17" points="492.71 76.89 492.02 76.5 492.71 76.11 493.41 76.5 492.71 76.89"/><polygon class="cls-17" points="494.1 77.68 493.41 77.29 494.1 76.89 494.79 77.29 494.1 77.68"/><polygon class="cls-39" points="495.48 78.47 494.79 78.08 495.48 77.68 496.18 78.08 495.48 78.47"/><polygon class="cls-17" points="496.87 79.26 496.18 78.86 496.87 78.47 497.56 78.86 496.87 79.26"/><polygon class="cls-17" points="498.25 80.05 497.56 79.65 498.25 79.26 498.95 79.65 498.25 80.05"/><polygon class="cls-38" points="499.64 80.83 498.95 80.44 499.64 80.05 500.33 80.44 499.64 80.83"/><polygon class="cls-39" points="501.02 81.62 500.33 81.23 501.02 80.83 501.72 81.23 501.02 81.62"/><polygon class="cls-17" points="502.41 82.41 501.72 82.02 502.41 81.62 503.1 82.02 502.41 82.41"/><polygon class="cls-38" points="503.79 83.2 503.1 82.81 503.79 82.41 504.49 82.81 503.79 83.2"/><polygon class="cls-17" points="491.32 77.69 490.63 77.29 491.32 76.9 492.02 77.29 491.32 77.69"/><polygon class="cls-39" points="492.71 78.47 492.02 78.08 492.71 77.69 493.4 78.08 492.71 78.47"/><polygon class="cls-17" points="494.09 79.26 493.4 78.87 494.09 78.47 494.79 78.87 494.09 79.26"/><polygon class="cls-17" points="495.48 80.05 494.79 79.66 495.48 79.26 496.17 79.66 495.48 80.05"/><polygon class="cls-17" points="496.86 80.84 496.17 80.44 496.86 80.05 497.56 80.44 496.86 80.84"/><polygon class="cls-17" points="498.25 81.63 497.56 81.23 498.25 80.84 498.94 81.23 498.25 81.63"/><polygon class="cls-17" points="499.63 82.41 498.94 82.02 499.63 81.63 500.32 82.02 499.63 82.41"/><polygon class="cls-39" points="501.02 83.2 500.32 82.81 501.02 82.41 501.71 82.81 501.02 83.2"/><polygon class="cls-17" points="502.4 83.99 501.71 83.6 502.4 83.2 503.1 83.6 502.4 83.99"/><polygon class="cls-17" points="489.93 78.48 489.24 78.08 489.93 77.69 490.63 78.08 489.93 78.48"/><polygon class="cls-38" points="491.32 79.27 490.63 78.87 491.32 78.48 492.01 78.87 491.32 79.27"/><polygon class="cls-17" points="492.7 80.05 492.01 79.66 492.7 79.27 493.4 79.66 492.7 80.05"/><polygon class="cls-17" points="494.09 80.84 493.4 80.45 494.09 80.05 494.78 80.45 494.09 80.84"/><polygon class="cls-17" points="495.47 81.63 494.78 81.24 495.47 80.84 496.17 81.24 495.47 81.63"/><polygon class="cls-17" points="496.86 82.42 496.17 82.02 496.86 81.63 497.55 82.02 496.86 82.42"/><polygon class="cls-39" points="498.24 83.21 497.55 82.81 498.24 82.42 498.94 82.81 498.24 83.21"/><polygon class="cls-17" points="499.63 83.99 498.94 83.6 499.63 83.21 500.32 83.6 499.63 83.99"/><polygon class="cls-17" points="501.01 84.78 500.32 84.39 501.01 83.99 501.7 84.39 501.01 84.78"/><polygon class="cls-34" points="501.04 78.3 479.23 65.89 501.03 53.48 522.84 65.89 501.04 78.3"/><polygon class="cls-28" points="501.04 74.91 485.18 65.89 501.03 56.87 516.88 65.89 501.04 74.91"/><polygon class="cls-20" points="501.03 57.48 516.35 66.2 516.88 65.89 501.03 56.87 485.18 65.89 485.72 66.2 501.03 57.48"/><polygon class="cls-40" points="522.84 65.89 522.84 72.93 501.04 85.33 501.04 78.3 522.84 65.89"/><polygon class="cls-24" points="479.23 65.89 479.23 72.93 501.04 85.33 501.04 78.3 479.23 65.89"/><g class="cls-36"><polygon class="cls-28" points="480.71 69.05 480.71 71.27 499.56 82 499.56 79.78 480.71 69.05"/></g><polygon class="cls-20" points="501.04 77.9 479.58 65.69 479.23 65.89 501.04 78.3 522.84 65.89 522.49 65.69 501.04 77.9"/><polygon class="cls-28" points="519.57 70.82 519.57 72.08 504.31 80.77 504.31 79.51 519.57 70.82"/><polygon class="cls-37" points="479.23 65.89 479.23 72.93 501.04 85.33 501.04 78.3 479.23 65.89"/><polygon class="cls-17" points="494.67 77.93 490.72 75.68 490.72 76.14 494.67 78.39 494.67 77.93"/><polygon class="cls-17" points="490.15 75.36 489.08 74.75 489.08 75.22 490.15 75.83 490.15 75.36"/><polygon class="cls-17" points="485.14 72.51 482.95 71.26 482.95 71.73 485.14 72.97 485.14 72.51"/><polygon class="cls-17" points="487.14 73.65 485.56 72.75 485.55 73.21 487.14 74.11 487.14 73.65"/><polygon class="cls-17" points="488.62 74.49 487.55 73.88 487.55 74.35 488.62 74.95 488.62 74.49"/><polygon class="cls-17" points="501.06 59.97 500.37 59.58 501.06 59.18 501.75 59.58 501.06 59.97"/><polygon class="cls-38" points="502.44 60.76 501.75 60.36 502.44 59.97 503.13 60.36 502.44 60.76"/><polygon class="cls-39" points="503.83 61.55 503.13 61.15 503.83 60.76 504.52 61.15 503.83 61.55"/><polygon class="cls-17" points="505.21 62.33 504.52 61.94 505.21 61.55 505.9 61.94 505.21 62.33"/><polygon class="cls-39" points="506.6 63.12 505.9 62.73 506.6 62.33 507.29 62.73 506.6 63.12"/><polygon class="cls-17" points="507.98 63.91 507.29 63.52 507.98 63.12 508.67 63.52 507.98 63.91"/><polygon class="cls-17" points="509.37 64.7 508.67 64.3 509.37 63.91 510.06 64.3 509.37 64.7"/><polygon class="cls-17" points="510.75 65.49 510.06 65.09 510.75 64.7 511.44 65.09 510.75 65.49"/><polygon class="cls-38" points="512.13 66.27 511.44 65.88 512.13 65.49 512.83 65.88 512.13 66.27"/><polygon class="cls-17" points="499.67 60.76 498.97 60.37 499.67 59.97 500.36 60.37 499.67 60.76"/><polygon class="cls-17" points="501.05 61.55 500.36 61.16 501.05 60.76 501.74 61.16 501.05 61.55"/><polygon class="cls-17" points="502.44 62.34 501.74 61.94 502.44 61.55 503.13 61.94 502.44 62.34"/><polygon class="cls-17" points="503.82 63.13 503.13 62.73 503.82 62.34 504.51 62.73 503.82 63.13"/><polygon class="cls-17" points="505.21 63.91 504.51 63.52 505.21 63.13 505.9 63.52 505.21 63.91"/><polygon class="cls-17" points="506.59 64.7 505.9 64.31 506.59 63.91 507.28 64.31 506.59 64.7"/><polygon class="cls-17" points="507.98 65.49 507.28 65.09 507.98 64.7 508.67 65.09 507.98 65.49"/><polygon class="cls-17" points="509.36 66.28 508.67 65.88 509.36 65.49 510.05 65.88 509.36 66.28"/><polygon class="cls-17" points="510.75 67.06 510.05 66.67 510.75 66.28 511.44 66.67 510.75 67.06"/><polygon class="cls-17" points="498.28 61.55 497.58 61.16 498.28 60.77 498.97 61.16 498.28 61.55"/><polygon class="cls-17" points="499.66 62.34 498.97 61.95 499.66 61.55 500.35 61.95 499.66 62.34"/><polygon class="cls-17" points="501.05 63.13 500.35 62.73 501.05 62.34 501.74 62.73 501.05 63.13"/><polygon class="cls-38" points="502.43 63.92 501.74 63.52 502.43 63.13 503.12 63.52 502.43 63.92"/><polygon class="cls-39" points="503.81 64.7 503.12 64.31 503.81 63.92 504.51 64.31 503.81 64.7"/><polygon class="cls-39" points="505.2 65.49 504.51 65.1 505.2 64.7 505.89 65.1 505.2 65.49"/><polygon class="cls-17" points="506.58 66.28 505.89 65.89 506.58 65.49 507.28 65.89 506.58 66.28"/><polygon class="cls-17" points="507.97 67.07 507.28 66.67 507.97 66.28 508.66 66.67 507.97 67.07"/><polygon class="cls-17" points="509.36 67.86 508.66 67.46 509.36 67.07 510.05 67.46 509.36 67.86"/><polygon class="cls-39" points="496.89 62.34 496.19 61.95 496.89 61.56 497.58 61.95 496.89 62.34"/><polygon class="cls-39" points="498.27 63.13 497.58 62.74 498.27 62.34 498.96 62.74 498.27 63.13"/><polygon class="cls-38" points="499.65 63.92 498.96 63.53 499.65 63.13 500.35 63.53 499.65 63.92"/><polygon class="cls-17" points="501.04 64.71 500.35 64.31 501.04 63.92 501.73 64.31 501.04 64.71"/><polygon class="cls-17" points="502.43 65.5 501.73 65.1 502.43 64.71 503.12 65.1 502.43 65.5"/><polygon class="cls-17" points="503.81 66.28 503.12 65.89 503.81 65.5 504.5 65.89 503.81 66.28"/><polygon class="cls-39" points="505.19 67.07 504.5 66.68 505.19 66.28 505.89 66.68 505.19 67.07"/><polygon class="cls-17" points="506.58 67.86 505.89 67.47 506.58 67.07 507.27 67.47 506.58 67.86"/><polygon class="cls-17" points="507.96 68.65 507.27 68.25 507.96 67.86 508.66 68.25 507.96 68.65"/><polygon class="cls-17" points="495.5 63.13 494.8 62.74 495.5 62.35 496.19 62.74 495.5 63.13"/><polygon class="cls-17" points="496.88 63.92 496.19 63.53 496.88 63.13 497.57 63.53 496.88 63.92"/><polygon class="cls-17" points="498.26 64.71 497.57 64.32 498.26 63.92 498.96 64.32 498.26 64.71"/><polygon class="cls-17" points="499.65 65.5 498.96 65.11 499.65 64.71 500.34 65.11 499.65 65.5"/><polygon class="cls-17" points="501.04 66.29 500.34 65.89 501.04 65.5 501.73 65.89 501.04 66.29"/><polygon class="cls-17" points="502.42 67.08 501.73 66.68 502.42 66.29 503.11 66.68 502.42 67.08"/><polygon class="cls-17" points="503.8 67.86 503.11 67.47 503.8 67.08 504.5 67.47 503.8 67.86"/><polygon class="cls-17" points="505.19 68.65 504.5 68.26 505.19 67.86 505.88 68.26 505.19 68.65"/><polygon class="cls-17" points="506.57 69.44 505.88 69.05 506.57 68.65 507.27 69.05 506.57 69.44"/><polygon class="cls-17" points="494.11 63.93 493.41 63.53 494.11 63.14 494.8 63.53 494.11 63.93"/><polygon class="cls-17" points="495.49 64.71 494.8 64.32 495.49 63.93 496.18 64.32 495.49 64.71"/><polygon class="cls-39" points="496.88 65.5 496.18 65.11 496.88 64.71 497.57 65.11 496.88 65.5"/><polygon class="cls-17" points="498.26 66.29 497.57 65.9 498.26 65.5 498.95 65.9 498.26 66.29"/><polygon class="cls-38" points="499.64 67.08 498.95 66.68 499.64 66.29 500.34 66.68 499.64 67.08"/><polygon class="cls-17" points="501.03 67.87 500.34 67.47 501.03 67.08 501.72 67.47 501.03 67.87"/><polygon class="cls-17" points="502.41 68.65 501.72 68.26 502.41 67.87 503.11 68.26 502.41 68.65"/><polygon class="cls-17" points="503.8 69.44 503.11 69.05 503.8 68.65 504.49 69.05 503.8 69.44"/><polygon class="cls-17" points="505.18 70.23 504.49 69.84 505.18 69.44 505.88 69.84 505.18 70.23"/><polygon class="cls-17" points="492.71 64.72 492.02 64.32 492.71 63.93 493.41 64.32 492.71 64.72"/><polygon class="cls-17" points="494.1 65.5 493.41 65.11 494.1 64.72 494.79 65.11 494.1 65.5"/><polygon class="cls-39" points="495.48 66.29 494.79 65.9 495.48 65.5 496.18 65.9 495.48 66.29"/><polygon class="cls-17" points="496.87 67.08 496.18 66.69 496.87 66.29 497.56 66.69 496.87 67.08"/><polygon class="cls-17" points="498.25 67.87 497.56 67.47 498.25 67.08 498.95 67.47 498.25 67.87"/><polygon class="cls-38" points="499.64 68.66 498.95 68.26 499.64 67.87 500.33 68.26 499.64 68.66"/><polygon class="cls-39" points="501.02 69.44 500.33 69.05 501.02 68.66 501.72 69.05 501.02 69.44"/><polygon class="cls-17" points="502.41 70.23 501.72 69.84 502.41 69.44 503.1 69.84 502.41 70.23"/><polygon class="cls-38" points="503.79 71.02 503.1 70.63 503.79 70.23 504.49 70.63 503.79 71.02"/><polygon class="cls-17" points="491.32 65.51 490.63 65.11 491.32 64.72 492.02 65.11 491.32 65.51"/><polygon class="cls-39" points="492.71 66.3 492.02 65.9 492.71 65.51 493.4 65.9 492.71 66.3"/><polygon class="cls-17" points="494.09 67.08 493.4 66.69 494.09 66.3 494.79 66.69 494.09 67.08"/><polygon class="cls-17" points="495.48 67.87 494.79 67.48 495.48 67.08 496.17 67.48 495.48 67.87"/><polygon class="cls-17" points="496.86 68.66 496.17 68.27 496.86 67.87 497.56 68.27 496.86 68.66"/><polygon class="cls-17" points="498.25 69.45 497.56 69.06 498.25 68.66 498.94 69.06 498.25 69.45"/><polygon class="cls-17" points="499.63 70.24 498.94 69.84 499.63 69.45 500.32 69.84 499.63 70.24"/><polygon class="cls-39" points="501.02 71.03 500.32 70.63 501.02 70.24 501.71 70.63 501.02 71.03"/><polygon class="cls-17" points="502.4 71.81 501.71 71.42 502.4 71.03 503.1 71.42 502.4 71.81"/><polygon class="cls-17" points="489.93 66.3 489.24 65.91 489.93 65.51 490.63 65.91 489.93 66.3"/><polygon class="cls-38" points="491.32 67.09 490.63 66.69 491.32 66.3 492.01 66.69 491.32 67.09"/><polygon class="cls-17" points="492.7 67.88 492.01 67.48 492.7 67.09 493.4 67.48 492.7 67.88"/><polygon class="cls-17" points="494.09 68.66 493.4 68.27 494.09 67.88 494.78 68.27 494.09 68.66"/><polygon class="cls-17" points="495.47 69.45 494.78 69.06 495.47 68.66 496.17 69.06 495.47 69.45"/><polygon class="cls-17" points="496.86 70.24 496.17 69.85 496.86 69.45 497.55 69.85 496.86 70.24"/><polygon class="cls-39" points="498.24 71.03 497.55 70.63 498.24 70.24 498.94 70.63 498.24 71.03"/><polygon class="cls-17" points="499.63 71.82 498.94 71.42 499.63 71.03 500.32 71.42 499.63 71.82"/><polygon class="cls-17" points="501.01 72.6 500.32 72.21 501.01 71.82 501.7 72.21 501.01 72.6"/><g class="cls-16"><path class="cls-17" d="M524.51,116.16a2.18,2.18,0,0,1-1.07-.28L511,108.82a.61.61,0,0,1,0-1.06L533.46,95a.12.12,0,0,1,.12,0l.1.06,13.3,7.57a.61.61,0,0,1,0,1.06l-21.4,12.18A2.18,2.18,0,0,1,524.51,116.16Zm9-20.91L511.16,108a.37.37,0,0,0,0,.64l12.39,7.05a2,2,0,0,0,1.91,0l21.4-12.18a.37.37,0,0,0,0-.64Z"/></g><path class="cls-41" d="M533.55,90.08l-3-17.44.24-.1-.36-.2h0a.26.26,0,0,0-.28,0L506.34,85.92a.66.66,0,0,0-.31.6l3,17.58a.22.22,0,0,0,.13.18h0l.35.2.06-.32h0l23.69-13.48A.66.66,0,0,0,533.55,90.08Z"/><path class="cls-42" d="M506.47,86.4l-.39-.17a.52.52,0,0,0-.05.29l3,17.58a.22.22,0,0,0,.13.18h0l.35.2.06-.32h0l1.2-.68Z"/><path class="cls-24" d="M533.61,90.89l-23.83,13.56c-.18.1-.34,0-.37-.14l-3-17.58a.66.66,0,0,1,.31-.6l23.83-13.56c.18-.1.34,0,.37.14l3,17.58A.66.66,0,0,1,533.61,90.89Z"/><g class="cls-36"><polygon class="cls-28" points="530.23 73.69 507.26 86.77 510.11 103.32 533.07 90.25 530.23 73.69"/></g><path class="cls-43" d="M548.59,99.21l-1.3.67-13-7.42a1,1,0,0,0-.85,0l-22.49,12.8c-.22-.12-1.2-.58-1.2-.58l.48,1.22h0a.28.28,0,0,0,.13.15l13.74,7.82a1,1,0,0,0,.85,0l23-13.1a.41.41,0,0,0,.19-.2h0Z"/><path class="cls-44" d="M548.39,99.42,524.8,112.84a1,1,0,0,1-.87,0l-14.08-8c-.22-.13-.2-.35.06-.5l23.59-13.42a1,1,0,0,1,.87,0l14.08,8C548.68,99,548.65,99.27,548.39,99.42Z"/><path class="cls-20" d="M548.39,99.28,524.8,112.71a1,1,0,0,1-.87,0l-14.08-8a.29.29,0,0,1-.14-.15.23.23,0,0,0,.14.28l14.08,8a1,1,0,0,0,.87,0l23.59-13.42c.17-.1.24-.23.2-.35A.41.41,0,0,1,548.39,99.28Z"/><path class="cls-21" d="M517.69,109.94v-.26s0,0,0,0l.91.52a.08.08,0,0,1,0,.06v.26s0,0,0,0l-.91-.52A.08.08,0,0,1,517.69,109.94Z"/><path class="cls-21" d="M519.05,110.71v-.26s0,0,0,0l.91.52a.08.08,0,0,1,0,.06v.25s0,0,0,0l-.91-.52A.08.08,0,0,1,519.05,110.71Z"/><path class="cls-22" d="M513.52,104.12,533.13,93a.43.43,0,0,1,.42,0l7,4a.15.15,0,0,1,0,.26l-19.59,11.15a.43.43,0,0,1-.42,0l-7-4A.15.15,0,0,1,513.52,104.12Z"/><path class="cls-23" d="M513.52,104.37l.07,0L533.13,93.3a.43.43,0,0,1,.42,0l6.91,3.94.07,0a.15.15,0,0,0,0-.26l-7-4a.43.43,0,0,0-.42,0l-19.6,11.16A.15.15,0,0,0,513.52,104.37Z"/><polygon class="cls-24" points="534.08 93.97 517.05 103.66 516.29 103.23 533.32 93.54 534.08 93.97"/><polygon class="cls-24" points="535.93 95.03 519.96 104.11 519.2 103.68 535.17 94.6 535.93 95.03"/><polygon class="cls-24" points="537.14 95.71 518.34 106.42 517.58 105.98 536.38 95.28 537.14 95.71"/><polygon class="cls-24" points="538.35 96.4 519.55 107.1 518.79 106.67 537.59 95.97 538.35 96.4"/><polygon class="cls-24" points="539.56 97.09 520.75 107.79 520 107.36 538.8 96.66 539.56 97.09"/><polygon class="cls-24" points="516.02 104.25 515.26 104.68 514.5 104.25 515.26 103.81 516.02 104.25"/><polygon class="cls-24" points="518.69 104.84 517.12 105.73 516.36 105.3 517.93 104.41 518.69 104.84"/><path class="cls-45" d="M533.88,106.82l5.29-3a.22.22,0,0,0,0-.43l-3.61-2.06a.84.84,0,0,0-.75,0l-5.29,3a.22.22,0,0,0,0,.43l3.61,2.06A.84.84,0,0,0,533.88,106.82Z"/><path class="cls-23" d="M529.52,104.51l5.29-3a.84.84,0,0,1,.75,0l3.61,2.06a.32.32,0,0,1,.13.13c.05-.1,0-.22-.13-.3l-3.61-2.06a.84.84,0,0,0-.75,0l-5.29,3c-.14.08-.18.2-.13.3A.32.32,0,0,1,529.52,104.51Z"/><g class="cls-46"><g class="cls-47"><path class="cls-48" d="M533.53,90.92l-23.59,13.42a1,1,0,0,1-.87,0l-14.08-8c-.22-.13-.2-.35.06-.5l23.59-13.42a1,1,0,0,1,.87,0l14.08,8C533.82,90.55,533.79,90.77,533.53,90.92Z"/><path class="cls-49" d="M509.87,93.33l5.29-3a.22.22,0,0,0,0-.43l-3.61-2.06a.84.84,0,0,0-.75,0l-5.29,3a.22.22,0,0,0,0,.43l3.61,2.06A.84.84,0,0,0,509.87,93.33Z"/><path class="cls-23" d="M505.51,91l5.29-3a.84.84,0,0,1,.75,0l3.61,2.06a.32.32,0,0,1,.13.13c.05-.1,0-.22-.13-.3l-3.61-2.06a.84.84,0,0,0-.75,0l-5.29,3c-.14.08-.18.2-.13.3A.32.32,0,0,1,505.51,91Z"/><path class="cls-22" d="M503.18,98l19.6-11.16a.43.43,0,0,1,.42,0l7,4a.15.15,0,0,1,0,.26L510.6,102.26a.43.43,0,0,1-.42,0l-7-4A.15.15,0,0,1,503.18,98Z"/><path class="cls-23" d="M503.18,98.28l.07,0,19.53-11.12a.43.43,0,0,1,.42,0l6.91,3.94.07,0a.15.15,0,0,0,0-.26l-7-4a.43.43,0,0,0-.42,0L503.18,98A.15.15,0,0,0,503.18,98.28Z"/><polygon class="cls-24" points="528.36 90.58 511.29 100.3 511.96 100.68 529.04 90.97 528.36 90.58"/><polygon class="cls-24" points="526.56 89.56 510.33 98.79 511.01 99.18 527.24 89.94 526.56 89.56"/><polygon class="cls-24" points="509.12 99.48 507.6 100.35 508.28 100.73 509.8 99.87 509.12 99.48"/><polygon class="cls-24" points="510.46 100.77 509.4 101.37 510.08 101.75 511.13 101.15 510.46 100.77"/><polygon class="cls-24" points="525.44 88.92 506.48 99.7 507.15 100.09 526.11 89.3 525.44 88.92"/><polygon class="cls-24" points="524.31 88.27 505.35 99.06 506.02 99.45 524.99 88.66 524.31 88.27"/><polygon class="cls-24" points="523.18 87.63 504.22 98.42 504.9 98.81 523.86 88.02 523.18 87.63"/></g></g><polygon class="cls-17" points="515.91 97.01 517.77 95.95 517.82 96.27 515.96 97.32 515.91 97.01"/><polygon class="cls-17" points="518.07 95.78 519.08 95.2 519.13 95.52 518.12 96.1 518.07 95.78"/><polygon class="cls-17" points="520.65 94.31 521.39 93.89 521.44 94.21 520.71 94.62 520.65 94.31"/><polygon class="cls-17" points="520.12 94.61 520.37 94.47 520.43 94.78 520.17 94.93 520.12 94.61"/><polygon class="cls-17" points="519.38 95.03 519.84 94.77 519.89 95.09 519.44 95.35 519.38 95.03"/><polygon class="cls-17" points="517.38 94.57 518.11 94.16 518.17 94.47 517.43 94.89 517.38 94.57"/><polygon class="cls-17" points="515.66 95.55 517.1 94.73 517.15 95.05 515.72 95.87 515.66 95.55"/><polygon class="cls-17" points="517.72 90.4 519.15 89.58 519.21 89.9 517.77 90.72 517.72 90.4"/><polygon class="cls-17" points="516.98 90.82 517.43 90.56 517.49 90.88 517.03 91.14 516.98 90.82"/><polygon class="cls-17" points="517.96 91.85 519.39 91.03 519.45 91.35 518.01 92.17 517.96 91.85"/><polygon class="cls-17" points="517.22 92.27 517.67 92.02 517.73 92.33 517.27 92.59 517.22 92.27"/><polygon class="cls-17" points="516.66 84.12 513.96 85.66 513.9 85.34 516.61 83.8 516.66 84.12"/><polygon class="cls-17" points="517.61 83.58 516.94 83.96 516.89 83.64 517.56 83.26 517.61 83.58"/><polygon class="cls-17" points="522.37 83.27 519.66 84.81 519.61 84.49 522.31 82.95 522.37 83.27"/><polygon class="cls-17" points="523.32 82.72 522.65 83.1 522.59 82.79 523.26 82.41 523.32 82.72"/><polygon class="cls-17" points="514.81 85.97 514.08 86.39 514.02 86.07 514.76 85.65 514.81 85.97"/><polygon class="cls-17" points="519.27 85.03 518.54 85.44 518.48 85.12 519.22 84.71 519.27 85.03"/><polygon class="cls-17" points="516.53 84.99 515.1 85.81 515.04 85.49 516.48 84.67 516.53 84.99"/><polygon class="cls-17" points="517.27 84.57 516.82 84.83 516.76 84.51 517.22 84.25 517.27 84.57"/><polygon class="cls-17" points="519 83.58 517.57 84.4 517.51 84.08 518.95 83.26 519 83.58"/><polygon class="cls-17" points="519.74 83.16 519.29 83.42 519.23 83.1 519.69 82.84 519.74 83.16"/><polygon class="cls-17" points="519.14 84.3 518.41 84.72 518.36 84.4 519.09 83.98 519.14 84.3"/><polygon class="cls-17" points="520.87 83.32 519.43 84.14 519.38 83.82 520.81 83 520.87 83.32"/><polygon class="cls-17" points="521.6 82.9 521.15 83.16 521.09 82.84 521.55 82.58 521.6 82.9"/><polygon class="cls-17" points="515.7 86.26 514.2 87.11 514.15 86.79 515.65 85.94 515.7 86.26"/><polygon class="cls-17" points="517.07 85.48 515.99 86.1 515.93 85.78 517.02 85.16 517.07 85.48"/><polygon class="cls-17" points="518.09 84.9 517.36 85.32 517.3 85 518.03 84.58 518.09 84.9"/><polygon class="cls-17" points="525.19 81.66 523.69 82.51 523.64 82.19 525.14 81.34 525.19 81.66"/><polygon class="cls-17" points="526.56 80.88 525.48 81.5 525.42 81.18 526.51 80.56 526.56 80.88"/><polygon class="cls-17" points="527.58 80.3 526.85 80.72 526.79 80.4 527.52 79.98 527.58 80.3"/><polygon class="cls-17" points="524.61 91.26 526.11 90.4 526.16 90.72 524.66 91.58 524.61 91.26"/><polygon class="cls-17" points="523.24 92.04 524.32 91.42 524.38 91.74 523.29 92.36 523.24 92.04"/><polygon class="cls-17" points="522.22 92.62 522.96 92.2 523.01 92.52 522.28 92.94 522.22 92.62"/><polygon class="cls-17" points="524.11 92.34 525.61 91.49 525.66 91.81 524.16 92.66 524.11 92.34"/><polygon class="cls-17" points="522.74 93.12 523.83 92.5 523.88 92.82 522.8 93.44 522.74 93.12"/><polygon class="cls-17" points="521.73 93.7 522.46 93.28 522.51 93.6 521.78 94.02 521.73 93.7"/><polygon class="cls-17" points="518.06 91 518.56 90.71 518.62 91.03 518.11 91.32 518.06 91"/><polygon class="cls-17" points="517.1 91.54 517.77 91.16 517.83 91.48 517.16 91.86 517.1 91.54"/><polygon class="cls-17" points="515.84 86.98 514.34 87.83 514.28 87.52 515.78 86.66 515.84 86.98"/><polygon class="cls-17" points="517.21 86.2 516.12 86.82 516.07 86.5 517.15 85.88 517.21 86.2"/><polygon class="cls-17" points="518.22 85.62 517.49 86.04 517.43 85.72 518.17 85.3 518.22 85.62"/><polygon class="cls-17" points="514.97 88.27 514.46 88.56 514.41 88.24 514.91 87.95 514.97 88.27"/><polygon class="cls-17" points="515.92 87.73 515.25 88.11 515.2 87.79 515.87 87.41 515.92 87.73"/><polygon class="cls-17" points="517.28 86.95 516.21 87.57 516.15 87.25 517.23 86.64 517.28 86.95"/><polygon class="cls-17" points="518.75 93 519.25 92.71 519.31 93.03 518.8 93.32 518.75 93"/><polygon class="cls-17" points="517.79 93.55 518.46 93.16 518.52 93.48 517.85 93.86 517.79 93.55"/><polygon class="cls-17" points="516.43 94.32 517.51 93.71 517.56 94.03 516.49 94.64 516.43 94.32"/><polygon class="cls-17" points="519.52 91.82 520.6 91.21 520.65 91.53 519.57 92.14 519.52 91.82"/><polygon class="cls-17" points="517.75 92.77 519.21 91.94 519.26 92.26 517.81 93.09 517.75 92.77"/><polygon class="cls-17" points="517.01 93.19 517.47 92.93 517.52 93.25 517.07 93.51 517.01 93.19"/><polygon class="cls-17" points="516.31 93.59 516.76 93.33 516.82 93.65 516.36 93.91 516.31 93.59"/><polygon class="cls-17" points="516.4 89.49 517.84 88.67 517.89 88.99 516.46 89.81 516.4 89.49"/><polygon class="cls-17" points="515.66 89.91 516.12 89.65 516.17 89.97 515.72 90.23 515.66 89.91"/><polygon class="cls-17" points="516.5 88.63 517.01 88.35 517.06 88.66 516.56 88.95 516.5 88.63"/><polygon class="cls-17" points="518.29 89.22 518.8 88.93 518.85 89.25 518.35 89.53 518.29 89.22"/><polygon class="cls-17" points="519.01 88.81 520.23 88.11 520.28 88.43 519.07 89.12 519.01 88.81"/><polygon class="cls-17" points="520.44 87.99 521.16 87.58 521.22 87.9 520.5 88.31 520.44 87.99"/><polygon class="cls-17" points="515.55 89.18 516.22 88.8 516.27 89.11 515.6 89.5 515.55 89.18"/><polygon class="cls-17" points="515.49 88.43 515.99 88.14 516.05 88.46 515.54 88.75 515.49 88.43"/><polygon class="cls-17" points="514.53 88.97 515.2 88.59 515.26 88.91 514.59 89.29 514.53 88.97"/><polygon class="cls-17" points="517.55 89.63 518.01 89.38 518.07 89.69 517.61 89.95 517.55 89.63"/><polygon class="cls-17" points="516.85 90.04 517.3 89.78 517.36 90.1 516.9 90.36 516.85 90.04"/><polygon class="cls-17" points="520.34 93.69 521.89 92.81 521.95 93.13 520.39 94.01 520.34 93.69"/><polygon class="cls-17" points="518.6 94.68 520.05 93.85 520.11 94.17 518.66 95 518.6 94.68"/><polygon class="cls-17" points="517.86 95.1 518.32 94.84 518.37 95.16 517.92 95.42 517.86 95.1"/><polygon class="cls-17" points="517.15 95.5 517.61 95.25 517.66 95.56 517.21 95.82 517.15 95.5"/><polygon class="cls-17" points="516.77 95.72 515.79 96.28 515.84 96.6 516.82 96.04 516.77 95.72"/><g class="cls-16"><path class="cls-17" d="M477.56,116.16a2.18,2.18,0,0,1-1.07-.28h0l-21.4-12.18a.61.61,0,0,1,0-1.06L468.49,95a.12.12,0,0,1,.12,0L491,107.76a.61.61,0,0,1,0,1.06l-12.39,7.05A2.18,2.18,0,0,1,477.56,116.16Zm-1-.49a2,2,0,0,0,1.91,0l12.39-7.05a.37.37,0,0,0,0-.64L468.55,95.25l0,0-13.3,7.57a.37.37,0,0,0,0,.64Z"/></g><path class="cls-50" d="M468.52,90.08l3-17.44-.24-.1.36-.2h0a.26.26,0,0,1,.28,0l23.83,13.56a.66.66,0,0,1,.31.6l-3,17.58a.22.22,0,0,1-.13.18h0l-.35.2-.06-.32h0L468.83,90.67A.66.66,0,0,1,468.52,90.08Z"/><path class="cls-51" d="M495.6,86.4l.39-.17a.52.52,0,0,1,.05.29l-3,17.58a.22.22,0,0,1-.13.18h0l-.35.2-.06-.32h0l-1.2-.68Z"/><path class="cls-24" d="M468.46,90.89l23.83,13.56c.18.1.34,0,.37-.14l3-17.58a.66.66,0,0,0-.31-.6L471.53,72.57c-.18-.1-.34,0-.37.14l-3,17.58A.66.66,0,0,0,468.46,90.89Z"/><g class="cls-36"><polygon class="cls-28" points="471.84 73.69 494.81 86.77 491.96 103.32 469 90.25 471.84 73.69"/></g><path class="cls-52" d="M453.48,99.21l1.3.67,13-7.42a1,1,0,0,1,.85,0l22.49,12.8c.22-.12,1.2-.58,1.2-.58l-.48,1.22h0a.28.28,0,0,1-.13.15L478,113.89a1,1,0,0,1-.85,0l-23-13.1a.41.41,0,0,1-.19-.2h0Z"/><path class="cls-53" d="M453.68,99.42l23.59,13.42a1,1,0,0,0,.87,0l14.08-8c.22-.13.2-.35-.06-.5L468.56,90.95a1,1,0,0,0-.87,0l-14.08,8C453.39,99,453.42,99.27,453.68,99.42Z"/><path class="cls-20" d="M453.68,99.28l23.59,13.42a1,1,0,0,0,.87,0l14.08-8a.29.29,0,0,0,.14-.15.23.23,0,0,1-.14.28l-14.08,8a1,1,0,0,1-.87,0L453.68,99.42c-.17-.1-.24-.23-.2-.35A.41.41,0,0,0,453.68,99.28Z"/><path class="cls-21" d="M484.38,109.94v-.26s0,0,0,0l-.91.52a.08.08,0,0,0,0,.06v.26s0,0,0,0l.91-.52A.08.08,0,0,0,484.38,109.94Z"/><path class="cls-21" d="M483,110.71v-.26s0,0,0,0l-.91.52a.08.08,0,0,0,0,.06v.25s0,0,0,0l.91-.52A.08.08,0,0,0,483,110.71Z"/><path class="cls-22" d="M488.55,104.12,468.94,93a.43.43,0,0,0-.42,0l-7,4a.15.15,0,0,0,0,.26l19.59,11.15a.43.43,0,0,0,.42,0l7-4A.15.15,0,0,0,488.55,104.12Z"/><path class="cls-23" d="M488.55,104.37l-.07,0L468.94,93.3a.43.43,0,0,0-.42,0l-6.91,3.94-.07,0a.15.15,0,0,1,0-.26l7-4a.43.43,0,0,1,.42,0l19.6,11.16A.15.15,0,0,1,488.55,104.37Z"/><polygon class="cls-24" points="469.63 94.9 486.23 104.34 486.94 103.89 470.39 94.47 469.63 94.9"/><polygon class="cls-24" points="468.56 96.4 483.62 104.97 484.14 104.41 469.31 95.97 468.56 96.4"/><polygon class="cls-24" points="464.93 95.71 483.73 106.42 484.49 105.98 465.69 95.28 464.93 95.71"/><polygon class="cls-24" points="463.72 96.4 482.52 107.1 483.28 106.67 464.48 95.97 463.72 96.4"/><polygon class="cls-24" points="462.51 97.09 481.31 107.79 482.07 107.36 463.27 96.66 462.51 97.09"/><polygon class="cls-24" points="486.05 104.25 486.81 104.68 487.56 104.25 486.81 103.81 486.05 104.25"/><polygon class="cls-24" points="483.38 104.84 484.95 105.73 485.71 105.3 484.14 104.41 483.38 104.84"/><path class="cls-54" d="M468.19,106.82l-5.29-3a.22.22,0,0,1,0-.43l3.61-2.06a.84.84,0,0,1,.75,0l5.29,3a.22.22,0,0,1,0,.43l-3.61,2.06A.84.84,0,0,1,468.19,106.82Z"/><path class="cls-23" d="M472.55,104.51l-5.29-3a.84.84,0,0,0-.75,0l-3.61,2.06a.32.32,0,0,0-.13.13c-.05-.1,0-.22.13-.3l3.61-2.06a.84.84,0,0,1,.75,0l5.29,3c.14.08.18.2.13.3A.32.32,0,0,0,472.55,104.51Z"/><g class="cls-46"><g class="cls-55"><path class="cls-56" d="M468.54,90.92l23.59,13.42a1,1,0,0,0,.87,0l14.08-8c.22-.13.2-.35-.06-.5L483.43,82.45a1,1,0,0,0-.87,0l-14.08,8C468.25,90.55,468.28,90.77,468.54,90.92Z"/><path class="cls-57" d="M492.2,93.33l-5.29-3a.22.22,0,0,1,0-.43l3.61-2.06a.84.84,0,0,1,.75,0l5.29,3a.22.22,0,0,1,0,.43l-3.61,2.06A.84.84,0,0,1,492.2,93.33Z"/><path class="cls-23" d="M496.56,91l-5.29-3a.84.84,0,0,0-.75,0l-3.61,2.06a.32.32,0,0,0-.13.13c-.05-.1,0-.22.13-.3l3.61-2.06a.84.84,0,0,1,.75,0l5.29,3c.14.08.18.2.13.3A.32.32,0,0,0,496.56,91Z"/><path class="cls-22" d="M498.89,98l-19.6-11.16a.43.43,0,0,0-.42,0l-7,4a.15.15,0,0,0,0,.26l19.59,11.15a.43.43,0,0,0,.42,0l7-4A.15.15,0,0,0,498.89,98Z"/><path class="cls-23" d="M498.89,98.28l-.07,0L479.28,87.21a.43.43,0,0,0-.42,0L472,91.15l-.07,0a.15.15,0,0,1,0-.26l7-4a.43.43,0,0,1,.42,0L498.89,98A.15.15,0,0,1,498.89,98.28Z"/><polygon class="cls-24" points="473.71 90.58 490.78 100.3 490.11 100.68 473.03 90.97 473.71 90.58"/><polygon class="cls-24" points="475.51 89.56 491.74 98.79 491.06 99.18 474.83 89.94 475.51 89.56"/><polygon class="cls-24" points="492.95 99.48 494.47 100.35 493.79 100.73 492.27 99.87 492.95 99.48"/><polygon class="cls-24" points="491.61 100.77 492.67 101.37 491.99 101.75 490.93 101.15 491.61 100.77"/><polygon class="cls-24" points="476.63 88.92 495.59 99.7 494.92 100.09 475.96 89.3 476.63 88.92"/><polygon class="cls-24" points="477.76 88.27 496.72 99.06 496.04 99.45 477.08 88.66 477.76 88.27"/><polygon class="cls-24" points="478.89 87.63 497.85 98.42 497.17 98.81 478.21 88.02 478.89 87.63"/></g></g><polygon class="cls-17" points="476.98 79.83 478.84 80.89 478.89 80.57 477.04 79.51 476.98 79.83"/><polygon class="cls-17" points="479.14 81.06 480.15 81.63 480.21 81.31 479.19 80.74 479.14 81.06"/><polygon class="cls-17" points="481.73 82.53 482.46 82.95 482.51 82.63 481.78 82.21 481.73 82.53"/><polygon class="cls-17" points="481.19 82.22 481.44 82.37 481.5 82.05 481.25 81.91 481.19 82.22"/><polygon class="cls-17" points="480.45 81.8 480.91 82.06 480.96 81.74 480.51 81.48 480.45 81.8"/><polygon class="cls-17" points="478.45 82.26 479.18 82.68 479.24 82.36 478.51 81.94 478.45 82.26"/><polygon class="cls-17" points="476.73 81.28 478.17 82.1 478.22 81.78 476.79 80.96 476.73 81.28"/><polygon class="cls-17" points="478.79 86.44 480.23 87.25 480.28 86.94 478.85 86.12 478.79 86.44"/><polygon class="cls-17" points="478.05 86.02 478.51 86.27 478.56 85.96 478.11 85.7 478.05 86.02"/><polygon class="cls-17" points="479.03 84.98 480.46 85.8 480.52 85.48 479.08 84.66 479.03 84.98"/><polygon class="cls-17" points="478.29 84.56 478.75 84.82 478.8 84.5 478.35 84.24 478.29 84.56"/><polygon class="cls-17" points="477.73 92.72 475.03 91.18 474.97 91.49 477.68 93.03 477.73 92.72"/><polygon class="cls-17" points="478.68 93.26 478.01 92.88 477.96 93.2 478.63 93.58 478.68 93.26"/><polygon class="cls-17" points="483.44 93.57 480.73 92.03 480.68 92.35 483.38 93.89 483.44 93.57"/><polygon class="cls-17" points="484.39 94.11 483.72 93.73 483.67 94.05 484.33 94.43 484.39 94.11"/><polygon class="cls-17" points="475.88 90.87 475.15 90.45 475.1 90.77 475.83 91.18 475.88 90.87"/><polygon class="cls-17" points="480.34 91.81 479.61 91.39 479.55 91.71 480.29 92.13 480.34 91.81"/><polygon class="cls-17" points="477.6 91.85 476.17 91.03 476.11 91.35 477.55 92.16 477.6 91.85"/><polygon class="cls-17" points="478.34 92.27 477.89 92.01 477.83 92.33 478.29 92.58 478.34 92.27"/><polygon class="cls-17" points="480.07 93.25 478.64 92.43 478.58 92.75 480.02 93.57 480.07 93.25"/><polygon class="cls-17" points="480.81 93.67 480.36 93.41 480.3 93.73 480.76 93.99 480.81 93.67"/><polygon class="cls-17" points="480.22 92.54 479.48 92.12 479.43 92.44 480.16 92.85 480.22 92.54"/><polygon class="cls-17" points="481.94 93.52 480.5 92.7 480.45 93.02 481.88 93.83 481.94 93.52"/><polygon class="cls-17" points="482.68 93.94 482.22 93.68 482.17 94 482.62 94.25 482.68 93.94"/><polygon class="cls-17" points="476.77 90.58 475.27 89.72 475.22 90.04 476.72 90.89 476.77 90.58"/><polygon class="cls-17" points="478.14 91.36 477.06 90.74 477 91.06 478.09 91.67 478.14 91.36"/><polygon class="cls-17" points="479.16 91.94 478.43 91.52 478.37 91.84 479.1 92.25 479.16 91.94"/><polygon class="cls-17" points="486.26 95.18 484.77 94.32 484.71 94.64 486.21 95.5 486.26 95.18"/><polygon class="cls-17" points="487.63 95.96 486.55 95.34 486.49 95.66 487.58 96.27 487.63 95.96"/><polygon class="cls-17" points="488.65 96.53 487.92 96.12 487.86 96.44 488.6 96.85 488.65 96.53"/><polygon class="cls-17" points="485.68 85.58 487.18 86.43 487.23 86.11 485.73 85.26 485.68 85.58"/><polygon class="cls-17" points="484.31 84.8 485.39 85.41 485.45 85.1 484.37 84.48 484.31 84.8"/><polygon class="cls-17" points="483.3 84.22 484.03 84.63 484.08 84.32 483.35 83.9 483.3 84.22"/><polygon class="cls-17" points="485.18 84.49 486.68 85.35 486.74 85.03 485.24 84.17 485.18 84.49"/><polygon class="cls-17" points="483.81 83.71 484.9 84.33 484.95 84.01 483.87 83.39 483.81 83.71"/><polygon class="cls-17" points="482.8 83.13 483.53 83.55 483.58 83.23 482.85 82.81 482.8 83.13"/><polygon class="cls-17" points="479.13 85.83 479.63 86.12 479.69 85.81 479.18 85.52 479.13 85.83"/><polygon class="cls-17" points="478.18 85.29 478.85 85.67 478.9 85.36 478.23 84.97 478.18 85.29"/><polygon class="cls-17" points="476.91 89.85 475.41 89 475.36 89.32 476.85 90.17 476.91 89.85"/><polygon class="cls-17" points="478.28 90.63 477.19 90.02 477.14 90.33 478.22 90.95 478.28 90.63"/><polygon class="cls-17" points="479.29 91.21 478.56 90.8 478.51 91.11 479.24 91.53 479.29 91.21"/><polygon class="cls-17" points="476.04 88.56 475.53 88.27 475.48 88.59 475.99 88.88 476.04 88.56"/><polygon class="cls-17" points="476.99 89.11 476.32 88.72 476.27 89.04 476.94 89.42 476.99 89.11"/><polygon class="cls-17" points="478.36 89.88 477.28 89.27 477.22 89.58 478.3 90.2 478.36 89.88"/><polygon class="cls-17" points="479.82 83.83 480.32 84.12 480.38 83.8 479.87 83.51 479.82 83.83"/><polygon class="cls-17" points="478.86 83.29 479.53 83.67 479.59 83.35 478.92 82.97 478.86 83.29"/><polygon class="cls-17" points="477.5 82.51 478.58 83.13 478.63 82.81 477.56 82.19 477.5 82.51"/><polygon class="cls-17" points="480.59 85.01 481.67 85.63 481.72 85.31 480.64 84.69 480.59 85.01"/><polygon class="cls-17" points="478.82 84.06 480.28 84.89 480.33 84.57 478.88 83.75 478.82 84.06"/><polygon class="cls-17" points="478.09 83.64 478.54 83.9 478.6 83.58 478.14 83.33 478.09 83.64"/><polygon class="cls-17" points="477.38 83.24 477.83 83.5 477.89 83.18 477.43 82.92 477.38 83.24"/><polygon class="cls-17" points="477.48 87.34 478.91 88.16 478.96 87.84 477.53 87.03 477.48 87.34"/><polygon class="cls-17" points="476.74 86.92 477.19 87.18 477.25 86.86 476.79 86.61 476.74 86.92"/><polygon class="cls-17" points="477.57 88.2 478.08 88.49 478.13 88.17 477.63 87.88 477.57 88.2"/><polygon class="cls-17" points="479.36 87.62 479.87 87.91 479.92 87.59 479.42 87.3 479.36 87.62"/><polygon class="cls-17" points="480.08 88.03 481.3 88.72 481.35 88.4 480.14 87.71 480.08 88.03"/><polygon class="cls-17" points="481.51 88.84 482.24 89.25 482.29 88.94 481.57 88.52 481.51 88.84"/><polygon class="cls-17" points="476.62 87.66 477.29 88.04 477.34 87.72 476.68 87.34 476.62 87.66"/><polygon class="cls-17" points="476.56 88.4 477.06 88.69 477.12 88.37 476.61 88.08 476.56 88.4"/><polygon class="cls-17" points="475.61 87.86 476.27 88.24 476.33 87.92 475.66 87.54 475.61 87.86"/><polygon class="cls-17" points="478.63 87.2 479.08 87.46 479.14 87.14 478.68 86.88 478.63 87.2"/><polygon class="cls-17" points="477.92 86.8 478.37 87.06 478.43 86.74 477.97 86.48 477.92 86.8"/><polygon class="cls-17" points="481.41 83.14 482.96 84.03 483.02 83.71 481.46 82.83 481.41 83.14"/><polygon class="cls-17" points="479.67 82.15 481.13 82.98 481.18 82.66 479.73 81.84 479.67 82.15"/><polygon class="cls-17" points="478.94 81.73 479.39 81.99 479.44 81.67 478.99 81.42 478.94 81.73"/><polygon class="cls-17" points="478.23 81.33 478.68 81.59 478.74 81.27 478.28 81.01 478.23 81.33"/><polygon class="cls-17" points="477.84 81.11 476.86 80.55 476.91 80.23 477.89 80.79 477.84 81.11"/><polygon class="cls-24" points="467.99 93.97 468.75 94.4 469.51 93.97 468.75 93.54 467.99 93.97"/><polygon class="cls-24" points="466.14 95.03 467.71 95.92 468.47 95.49 466.89 94.6 466.14 95.03"/><polygon class="cls-58" points="516.92 65.89 516.92 35.43 485.15 35.43 485.15 65.89 501.04 74.93 516.92 65.89"/><path class="cls-4" d="M501.06,124.4l-13.12-7.46,13.12-7.46,13.12,7.46Zm-12.75-7.46,12.75,7.25,12.74-7.25-12.75-7.25Z"/><polygon class="cls-59" points="513.18 114.17 513.18 111.75 501.06 118.35 488.93 111.75 488.93 114.17 501.06 121.06 513.18 114.17"/><polygon class="cls-60" points="501.06 118.65 488.93 111.75 501.06 104.86 513.18 111.75 501.06 118.65"/><polygon class="cls-7" points="501.06 118.45 489.11 111.65 488.93 111.75 501.06 118.65 513.18 111.75 513.01 111.65 501.06 118.45"/><polygon class="cls-8" points="501.06 116.02 493.56 111.75 501.06 107.49 508.55 111.75 501.06 116.02"/><polygon class="cls-61" points="501.06 116.02 493.56 111.75 501.06 107.49 508.55 111.75 501.06 116.02"/><polygon class="cls-62" points="501.06 101.52 508.55 105.79 508.55 111.75 501.06 107.49 501.06 101.52"/><polygon class="cls-63" points="501.06 107.49 493.56 111.75 493.56 105.79 501.06 101.52 501.06 107.49"/><polygon class="cls-64" points="501.06 110.05 493.56 105.79 501.06 101.52 508.55 105.79 501.06 110.05"/><polygon class="cls-65" points="501.06 110.05 501.06 116.02 508.55 111.75 508.55 105.79 501.06 110.05"/><polygon class="cls-66" points="493.56 105.79 493.56 111.75 501.06 116.02 501.06 110.05 493.56 105.79"/><path class="cls-4" d="M548.59,98.13l-13.12-7.46,13.12-7.46,13.12,7.46Zm-12.75-7.46,12.75,7.25,12.74-7.25-12.75-7.25Z"/><polygon class="cls-67" points="560.72 87.89 560.72 85.48 548.59 92.07 536.47 85.48 536.47 87.89 548.59 94.79 560.72 87.89"/><polygon class="cls-68" points="548.59 92.38 536.47 85.48 548.59 78.58 560.72 85.48 548.59 92.38"/><polygon class="cls-7" points="548.59 92.18 536.64 85.38 536.47 85.48 548.59 92.38 560.72 85.48 560.54 85.38 548.59 92.18"/><polygon class="cls-8" points="548.59 89.74 541.1 85.48 548.59 81.21 556.09 85.48 548.59 89.74"/><polygon class="cls-69" points="548.59 89.74 541.1 85.48 548.59 81.21 556.09 85.48 548.59 89.74"/><polygon class="cls-70" points="548.59 75.25 556.09 79.51 556.09 85.48 548.59 81.21 548.59 75.25"/><polygon class="cls-71" points="548.59 81.21 541.1 85.48 541.1 79.51 548.59 75.25 548.59 81.21"/><polygon class="cls-72" points="548.59 83.78 541.1 79.51 548.59 75.25 556.09 79.51 548.59 83.78"/><polygon class="cls-73" points="548.59 83.78 548.59 89.74 556.09 85.48 556.09 79.51 548.59 83.78"/><polygon class="cls-74" points="541.1 79.51 541.1 85.48 548.59 89.74 548.59 83.78 541.1 79.51"/><path class="cls-4" d="M453.48,98.13l-13.12-7.46,13.12-7.46,13.12,7.46Zm-12.75-7.46,12.75,7.25,12.74-7.25-12.75-7.25Z"/><polygon class="cls-75" points="465.6 87.89 465.6 85.48 453.48 92.07 441.35 85.48 441.35 87.89 453.48 94.79 465.6 87.89"/><polygon class="cls-76" points="453.48 92.38 441.35 85.48 453.48 78.58 465.6 85.48 453.48 92.38"/><polygon class="cls-7" points="453.48 92.18 441.53 85.38 441.35 85.48 453.48 92.38 465.6 85.48 465.42 85.38 453.48 92.18"/><polygon class="cls-8" points="453.48 89.74 445.98 85.48 453.48 81.21 460.97 85.48 453.48 89.74"/><polygon class="cls-77" points="453.48 89.74 445.98 85.48 453.48 81.21 460.97 85.48 453.48 89.74"/><polygon class="cls-78" points="453.48 75.25 460.97 79.51 460.97 85.48 453.48 81.21 453.48 75.25"/><polygon class="cls-79" points="453.48 81.21 445.98 85.48 445.98 79.51 453.48 75.25 453.48 81.21"/><polygon class="cls-80" points="453.48 83.78 445.98 79.51 453.48 75.25 460.97 79.51 453.48 83.78"/><polygon class="cls-81" points="453.48 83.78 453.48 89.74 460.97 85.48 460.97 79.51 453.48 83.78"/><polygon class="cls-82" points="445.98 79.51 445.98 85.48 453.48 89.74 453.48 83.78 445.98 79.51"/></g></g></g></svg>